<svg xmlns="http://www.w3.org/2000/svg" viewBox="0 0 736.01 162.5"><defs><style>.cls-1{fill:#202124;}</style></defs><g id="Layer_2" data-name="Layer 2"><g id="Layer_1-2" data-name="Layer 1"><path class="cls-1" d="M230.48,36.66H269q14.31,0,22.29,6.91t8,18.87q0,12-8,18.93t-22.23,7H246.55v37H230.48ZM267.1,75.89q8.34,0,12.64-3.42t4.3-9.9q0-6.6-4.24-10t-12.7-3.42H246.55V75.89Z"/><path class="cls-1" d="M401.58,125.34H384.65L373.31,95.82a9.86,9.86,0,0,0-4.61-5.73,17.5,17.5,0,0,0-8.09-1.62H344.54v36.87H328.6V36.66h38q15.06,0,22.91,6.6t7.85,18.93a24.15,24.15,0,0,1-4.67,15A25.3,25.3,0,0,1,379.41,86q7.86,1.62,11.34,11ZM364.34,76q9.09,0,13.46-3.36t4.35-10.22q0-6.72-4.29-10t-13.52-3.3h-20V76Z"/><path class="cls-1" d="M436.2,36.66h16.07v88.68H436.2Z"/><path class="cls-1" d="M565.35,36.66v88.68h-12L505.56,63.19v62.15H490.62V36.66h12l47.7,62v-62Z"/><path class="cls-1" d="M593.29,73h37.49V89H593.29Z"/><path class="cls-1" d="M657.54,36.66h32.64Q712,36.66,724,48.25t12,32.62q0,21.18-12,32.82t-33.81,11.65H657.54Zm31.64,75.6q30.63,0,30.64-31.39,0-31.13-30.64-31.13H673.61v62.52Z"/><path class="cls-1" d="M81.25,0A81.25,81.25,0,1,0,162.5,81.25,81.34,81.34,0,0,0,81.25,0Zm7.23,147.63V14.87a66.78,66.78,0,0,1,0,132.76ZM74,14.87V147.63A66.78,66.78,0,0,1,74,14.87Z"/></g></g></svg>