<svg width="37" height="37" viewBox="0 0 37 37" fill="none" xmlns="http://www.w3.org/2000/svg">
<path fill-rule="evenodd" clip-rule="evenodd" d="M4.75 3.32203e-06L4.698 1.05705e-06H4.69797C3.79951 -2.71961e-05 3.0503 -5.07543e-05 2.45552 0.0799146C1.82773 0.164319 1.26093 0.34999 0.80546 0.80546C0.34999 1.26093 0.164319 1.82773 0.0799146 2.45552C-5.07549e-05 3.0503 -2.71961e-05 3.79951 1.05705e-06 4.69797V4.698L3.32203e-06 4.75V10.391L1.05705e-06 10.443V10.4431C-2.71961e-05 11.3415 -5.07543e-05 12.0907 0.0799146 12.6855C0.164319 13.3133 0.34999 13.8801 0.80546 14.3356C1.26093 14.791 1.82773 14.9767 2.45552 15.0611C3.0503 15.1411 3.79951 15.1411 4.69798 15.141H4.69801L4.75 15.141H31.8269L31.8789 15.141H31.879C32.7774 15.1411 33.5266 15.1411 34.1214 15.0611C34.7492 14.9767 35.316 14.791 35.7715 14.3356C36.2269 13.8801 36.4126 13.3133 36.497 12.6855C36.577 12.0907 36.577 11.3415 36.5769 10.4431V10.391V4.75V4.69795C36.577 3.79949 36.577 3.05029 36.497 2.45552C36.4126 1.82773 36.2269 1.26093 35.7715 0.80546C35.316 0.34999 34.7492 0.164319 34.1214 0.0799146C33.5266 -5.07549e-05 32.7774 -2.71961e-05 31.879 1.05705e-06H31.8789L31.8269 3.32203e-06H4.75ZM1.86612 1.86612C1.99644 1.7358 2.19393 1.62858 2.6554 1.56654C3.13843 1.5016 3.78599 1.5 4.75 1.5H31.8269C32.7909 1.5 33.4385 1.5016 33.9215 1.56654C34.383 1.62858 34.5805 1.7358 34.7108 1.86612C34.8411 1.99644 34.9483 2.19393 35.0104 2.6554C35.0753 3.13843 35.0769 3.78599 35.0769 4.75V10.391C35.0769 11.355 35.0753 12.0026 35.0104 12.4856C34.9483 12.9471 34.8411 13.1446 34.7108 13.2749C34.5805 13.4052 34.383 13.5125 33.9215 13.5745C33.4385 13.6394 32.7909 13.641 31.8269 13.641H4.75C3.78599 13.641 3.13843 13.6394 2.6554 13.5745C2.19393 13.5125 1.99644 13.4052 1.86612 13.2749C1.7358 13.1446 1.62858 12.9471 1.56654 12.4856C1.5016 12.0026 1.5 11.355 1.5 10.391V4.75C1.5 3.78599 1.5016 3.13843 1.56654 2.6554C1.62858 2.19393 1.7358 1.99644 1.86612 1.86612ZM4.75 21.4359L4.698 21.4359H4.69797C3.79951 21.4359 3.0503 21.4358 2.45552 21.5158C1.82773 21.6002 1.26093 21.7859 0.80546 22.2414C0.34999 22.6968 0.164319 23.2636 0.0799146 23.8914C-5.07549e-05 24.4862 -2.71961e-05 25.2354 1.05705e-06 26.1339V26.1339L3.32203e-06 26.1859V31.8269L1.05705e-06 31.8789V31.879C-2.71961e-05 32.7774 -5.07543e-05 33.5266 0.0799146 34.1214C0.164319 34.7492 0.34999 35.316 0.80546 35.7715C1.26093 36.2269 1.82773 36.4126 2.45552 36.497C3.0503 36.577 3.79952 36.577 4.698 36.5769H4.75H20.1346H20.1866C21.0851 36.577 21.8343 36.577 22.4291 36.497C23.0569 36.4126 23.6237 36.2269 24.0792 35.7715C24.5346 35.316 24.7203 34.7492 24.8047 34.1214C24.8847 33.5266 24.8846 32.7774 24.8846 31.8789V31.8269V26.1859V26.1339C24.8846 25.2354 24.8847 24.4862 24.8047 23.8914C24.7203 23.2636 24.5346 22.6968 24.0792 22.2414C23.6237 21.7859 23.0569 21.6002 22.4291 21.5158C21.8343 21.4358 21.0851 21.4359 20.1867 21.4359H20.1866L20.1346 21.4359H4.75ZM1.86612 23.302C1.99644 23.1717 2.19393 23.0645 2.6554 23.0024C3.13843 22.9375 3.78599 22.9359 4.75 22.9359H20.1346C21.0986 22.9359 21.7462 22.9375 22.2292 23.0024C22.6907 23.0645 22.8882 23.1717 23.0185 23.302C23.1488 23.4323 23.256 23.6298 23.3181 24.0913C23.383 24.5743 23.3846 25.2219 23.3846 26.1859V31.8269C23.3846 32.7909 23.383 33.4385 23.3181 33.9215C23.256 34.383 23.1488 34.5805 23.0185 34.7108C22.8882 34.8411 22.6907 34.9483 22.2292 35.0104C21.7462 35.0753 21.0986 35.0769 20.1346 35.0769H4.75C3.78599 35.0769 3.13843 35.0753 2.65539 35.0104C2.19393 34.9483 1.99644 34.8411 1.86612 34.7108C1.7358 34.5805 1.62858 34.383 1.56654 33.9215C1.5016 33.4385 1.5 32.7909 1.5 31.8269V26.1859C1.5 25.2219 1.5016 24.5743 1.56654 24.0913C1.62858 23.6298 1.7358 23.4323 1.86612 23.302Z" fill="url(#paint0_linear_111_1393)"/>
<defs>
<linearGradient id="paint0_linear_111_1393" x1="0" y1="0" x2="37" y2="37" gradientUnits="userSpaceOnUse">
<stop stop-color="#C7B299"/>
<stop offset="1" stop-color="#998675"/>
</linearGradient>
</defs>
</svg>
