<svg width="37" height="37" viewBox="0 0 37 37" fill="none" xmlns="http://www.w3.org/2000/svg">
<path fill-rule="evenodd" clip-rule="evenodd" d="M1.5 18.4235C1.5 9.07693 9.07693 1.5 18.4235 1.5C21.1267 1.5 23.6799 2.13322 25.9447 3.25874C26.3156 3.44308 26.7657 3.29181 26.9501 2.92088C27.1344 2.54994 26.9832 2.09981 26.6122 1.91547C24.1446 0.689176 21.3635 0 18.4235 0C8.2485 0 0 8.2485 0 18.4235C0 28.5986 8.2485 36.8471 18.4235 36.8471C28.5986 36.8471 36.8471 28.5986 36.8471 18.4235C36.8471 17.7322 36.809 17.0495 36.7347 16.3774C36.6892 15.9657 36.3185 15.6688 35.9068 15.7144C35.4951 15.7599 35.1982 16.1305 35.2438 16.5422C35.312 17.1597 35.3471 17.7874 35.3471 18.4235C35.3471 27.7702 27.7702 35.3471 18.4235 35.3471C9.07693 35.3471 1.5 27.7702 1.5 18.4235ZM36.6274 5.20777C36.9203 4.91487 36.9203 4.44 36.6274 4.14711C36.3345 3.85421 35.8597 3.85421 35.5668 4.14711L18.4236 21.2903L13.0627 15.9295C12.7698 15.6366 12.2949 15.6366 12.002 15.9295C11.7092 16.2224 11.7092 16.6972 12.002 16.9901L17.8932 22.8813C18.0339 23.022 18.2246 23.101 18.4236 23.101C18.6225 23.101 18.8132 23.022 18.9539 22.8813L36.6274 5.20777Z" fill="url(#paint0_linear_111_1399)"/>
<defs>
<linearGradient id="paint0_linear_111_1399" x1="6" y1="-0.076415" x2="37" y2="36.9236" gradientUnits="userSpaceOnUse">
<stop stop-color="#C7B299"/>
<stop offset="1" stop-color="#998675"/>
</linearGradient>
</defs>
</svg>
