<svg width="43" height="35" viewBox="0 0 43 35" fill="none" xmlns="http://www.w3.org/2000/svg">
<path fill-rule="evenodd" clip-rule="evenodd" d="M10.1009 1.50009C11.3883 1.50009 11.8231 1.51336 12.2046 1.67136C12.586 1.82936 12.9028 2.12742 13.8132 3.03778L16.1541 5.37864L16.2549 5.47952L16.2549 5.47953C17.0237 6.24906 17.558 6.78385 18.2493 7.07022C18.9407 7.3566 19.6967 7.35624 20.7844 7.35572L20.927 7.35567H30.0085C31.4439 7.35567 32.445 7.35727 33.2004 7.45882C33.9342 7.55747 34.3227 7.73792 34.5995 8.01468C34.8763 8.29145 35.0567 8.68002 35.1554 9.41379C35.2569 10.1691 35.2585 11.1703 35.2585 12.6057V13.6635H17.5048L17.4564 13.6635H17.4564C16.3202 13.6635 15.3989 13.6635 14.6608 13.7541C13.8917 13.8485 13.2337 14.0497 12.668 14.5135C12.1022 14.9773 11.7759 15.5831 11.5325 16.3187C11.2989 17.0247 11.1182 17.9282 10.8954 19.0423L10.8859 19.0897L8.06752 33.1817H6.875C5.43958 33.1817 4.43847 33.1801 3.68312 33.0786C2.94935 32.9799 2.56077 32.7995 2.28401 32.5227C2.00725 32.246 1.8268 31.8574 1.72815 31.1236C1.62659 30.3683 1.625 29.3671 1.625 27.9317V8.55753V6.75009C1.625 5.31467 1.62659 4.31356 1.72815 3.55821C1.8268 2.82443 2.00725 2.43586 2.28401 2.1591C2.56077 1.88234 2.94935 1.70189 3.68312 1.60324C4.43847 1.50168 5.43959 1.50009 6.875 1.50009H10.1009ZM32.1299 33.1821C32.1216 33.1819 32.1132 33.1817 32.1048 33.1817H26.2492H9.59723L12.3568 19.3839C12.5914 18.211 12.7552 17.3983 12.9566 16.7899C13.1514 16.2011 13.3553 15.8897 13.619 15.6735C13.8826 15.4573 14.228 15.3185 14.8436 15.2429C15.4797 15.1648 16.3087 15.1635 17.5048 15.1635H35.9983C36.0017 15.1636 36.0051 15.1636 36.0085 15.1636C36.0119 15.1636 36.0153 15.1636 36.0187 15.1635H36.9847C38.1367 15.1635 38.9193 15.1653 39.4931 15.2475C40.0466 15.3267 40.2613 15.4628 40.391 15.621C40.5207 15.7793 40.6121 16.0165 40.5812 16.5748C40.5492 17.1535 40.3975 17.9213 40.1716 19.0509L38.1894 28.9618C37.9548 30.1347 37.791 30.9473 37.5897 31.5557C37.3948 32.1446 37.191 32.456 36.9273 32.6722C36.6636 32.8883 36.3182 33.0272 35.7026 33.1027C35.0666 33.1808 34.2376 33.1821 33.0414 33.1821H32.1299ZM8.65742 34.6817H6.875H6.82019H6.82006C5.4525 34.6818 4.3502 34.6818 3.48325 34.5652C2.58314 34.4442 1.82527 34.1853 1.22335 33.5834C0.621435 32.9815 0.362541 32.2236 0.241525 31.3235C0.124964 30.4565 0.12498 29.3542 0.125001 27.9866V27.9866V27.9317V8.55753V6.75009V6.69521V6.69519C0.12498 5.32761 0.124964 4.2253 0.241525 3.35834C0.362541 2.45823 0.621435 1.70035 1.22335 1.09844C1.82527 0.496521 2.58314 0.237628 3.48325 0.116611C4.35022 5.06303e-05 5.45254 6.726e-05 6.82013 8.78832e-05L6.875 8.84793e-05H10.1009L10.2435 4.33585e-05C11.3313 -0.000475917 12.0872 -0.000836823 12.7786 0.28554C13.47 0.571917 14.0043 1.10671 14.7731 1.87625L14.8739 1.97712L17.2147 4.31798C18.1251 5.22835 18.4419 5.52641 18.8234 5.6844C19.2048 5.8424 19.6396 5.85567 20.927 5.85567H30.0085L30.0634 5.85567H30.0634C31.431 5.85565 32.5333 5.85564 33.4003 5.9722C34.3004 6.09321 35.0582 6.35211 35.6602 6.95402C36.2621 7.55594 36.521 8.31381 36.642 9.21392C36.7585 10.0809 36.7585 11.1832 36.7585 12.5507V12.6057V13.6635H36.9847L37.0426 13.6635C38.122 13.6635 39.013 13.6635 39.7056 13.7626C40.4309 13.8664 41.0806 14.0963 41.551 14.6701C42.0214 15.2438 42.1194 15.926 42.0789 16.6576C42.0403 17.3562 41.8656 18.2299 41.6538 19.2884L41.6425 19.3451L39.6603 29.2559L39.6508 29.3034C39.428 30.4175 39.2473 31.3209 39.0137 32.027C38.7703 32.7626 38.444 33.3684 37.8783 33.8322C37.3125 34.296 36.6545 34.4971 35.8854 34.5916C35.1473 34.6822 34.226 34.6822 33.0898 34.6821H33.0414H8.68229C8.67398 34.6821 8.66569 34.682 8.65742 34.6817Z" fill="url(#paint0_linear_111_1387)"/>
<defs>
<linearGradient id="paint0_linear_111_1387" x1="0.125" y1="0" x2="41.8619" y2="34.8969" gradientUnits="userSpaceOnUse">
<stop stop-color="#C7B299"/>
<stop offset="1" stop-color="#998675"/>
</linearGradient>
</defs>
</svg>
