<svg width="50" height="36" viewBox="0 0 50 36" fill="none" xmlns="http://www.w3.org/2000/svg">
<path fill-rule="evenodd" clip-rule="evenodd" d="M32.1919 0.0639705C32.4919 0.0639705 32.763 0.242768 32.8812 0.518531L39.9422 16.9942L49.1221 16.9942C49.5363 16.9942 49.8721 17.33 49.8721 17.7442C49.8721 18.1584 49.5363 18.4942 49.1221 18.4942L39.4477 18.4942C39.1477 18.4942 38.8765 18.3154 38.7583 18.0396L32.1919 2.71791L18.3696 34.9699C18.2514 35.2456 17.9803 35.4244 17.6802 35.4244C17.3802 35.4244 17.1091 35.2456 16.9909 34.9699L9.92987 18.4942L0.749997 18.4942C0.335783 18.4942 -3.09131e-06 18.1584 -3.09131e-06 17.7442C-3.09131e-06 17.33 0.335783 16.9942 0.749997 16.9942L10.4244 16.9942C10.7244 16.9942 10.9956 17.173 11.1138 17.4488L17.6802 32.7705L31.5025 0.518531C31.6207 0.242768 31.8918 0.0639705 32.1919 0.0639705Z" fill="url(#paint0_linear_111_1405)"/>
<defs>
<linearGradient id="paint0_linear_111_1405" x1="-9.23366e-07" y1="1.12513e-06" x2="50" y2="35" gradientUnits="userSpaceOnUse">
<stop stop-color="#C7B299"/>
<stop offset="1" stop-color="#998675"/>
</linearGradient>
</defs>
</svg>
