<svg width="32" height="39" viewBox="0 0 32 39" fill="none" xmlns="http://www.w3.org/2000/svg">
<path fill-rule="evenodd" clip-rule="evenodd" d="M12.1837 1.05705e-06L12.2357 3.32203e-06H19.2071L19.2591 1.05705e-06H19.2592C20.1576 -2.71961e-05 20.9068 -5.07549e-05 21.5016 0.0799146C22.1294 0.164319 22.6962 0.34999 23.1517 0.80546C23.6072 1.26093 23.7928 1.82773 23.8772 2.45552C23.9572 3.05029 23.9572 3.79949 23.9571 4.69795V4.69798V4.69801L23.9571 4.75V11.2304C25.2397 11.2366 26.3046 11.2638 27.1819 11.3817C28.3543 11.5393 29.3033 11.8715 30.0516 12.6198C30.8 13.3682 31.1321 14.3171 31.2897 15.4896C31.4429 16.6288 31.4429 18.0844 31.4429 19.9221V19.9222V19.9786V30.1786V30.235V30.235C31.4429 32.0728 31.4429 33.5284 31.2897 34.6676C31.1321 35.84 30.8 36.789 30.0516 37.5373C29.3033 38.2857 28.3543 38.6178 27.1819 38.7754C26.0427 38.9286 24.5871 38.9286 22.7494 38.9286H22.7493H22.6929H8.75H8.69359H8.69347C6.85577 38.9286 5.40017 38.9286 4.26098 38.7754C3.08856 38.6178 2.13961 38.2857 1.39124 37.5373C0.642881 36.789 0.310764 35.84 0.153135 34.6676C-2.78803e-05 33.5284 -1.52441e-05 32.0728 3.12671e-07 30.235V30.1786V19.9786V19.9222C-1.52441e-05 18.0844 -2.78803e-05 16.6288 0.153135 15.4896C0.310764 14.3171 0.642881 13.3682 1.39124 12.6198C2.13961 11.8715 3.08856 11.5393 4.26098 11.3817C5.13825 11.2638 6.20316 11.2366 7.48572 11.2304V4.75L7.48571 4.698C7.48568 3.79952 7.48566 3.0503 7.56563 2.45552C7.65003 1.82773 7.8357 1.26093 8.29117 0.80546C8.74664 0.34999 9.31344 0.164319 9.94124 0.0799146C10.536 -5.07543e-05 11.2852 -2.71961e-05 12.1837 1.05705e-06H12.1837ZM22.4571 4.75V11.2286H8.98571V4.75C8.98571 3.78599 8.98731 3.13843 9.05225 2.6554C9.11429 2.19393 9.22151 1.99644 9.35183 1.86612C9.48215 1.7358 9.67965 1.62858 10.1411 1.56654C10.6241 1.5016 11.2717 1.5 12.2357 1.5H19.2071C20.1712 1.5 20.8187 1.5016 21.3018 1.56654C21.7632 1.62858 21.9607 1.7358 22.091 1.86612C22.2213 1.99644 22.3286 2.19393 22.3906 2.6554C22.4556 3.13843 22.4571 3.78599 22.4571 4.75ZM4.46085 12.8683C3.45476 13.0036 2.87511 13.2573 2.4519 13.6805C2.02869 14.1037 1.77502 14.6833 1.63976 15.6894C1.50159 16.7171 1.5 18.0718 1.5 19.9786V30.1786C1.5 32.0854 1.50159 33.4401 1.63976 34.4677C1.77502 35.4738 2.02869 36.0535 2.4519 36.4767C2.87511 36.8999 3.45476 37.1535 4.46085 37.2888C5.48851 37.427 6.84318 37.4286 8.75 37.4286H22.6929C24.5997 37.4286 25.9543 37.427 26.982 37.2888C27.9881 37.1535 28.5677 36.8999 28.991 36.4767C29.4142 36.0535 29.6678 35.4738 29.8031 34.4677C29.9413 33.4401 29.9429 32.0854 29.9429 30.1786V19.9786C29.9429 18.0718 29.9413 16.7171 29.8031 15.6894C29.6678 14.6833 29.4142 14.1037 28.991 13.6805C28.5677 13.2573 27.9881 13.0036 26.982 12.8683C25.9543 12.7302 24.5997 12.7286 22.6929 12.7286H8.75C6.84318 12.7286 5.48851 12.7302 4.46085 12.8683ZM16.4714 23.2071C16.4714 22.7929 16.1356 22.4571 15.7214 22.4571C15.3072 22.4571 14.9714 22.7929 14.9714 23.2071V26.95C14.9714 27.3642 15.3072 27.7 15.7214 27.7C16.1356 27.7 16.4714 27.3642 16.4714 26.95V23.2071Z" fill="url(#paint0_linear_111_1410)"/>
<defs>
<linearGradient id="paint0_linear_111_1410" x1="0" y1="0" x2="31" y2="44" gradientUnits="userSpaceOnUse">
<stop stop-color="#C7B299"/>
<stop offset="1" stop-color="#998675"/>
</linearGradient>
</defs>
</svg>
