<svg width="13" height="14" viewBox="0 0 13 14" fill="none" xmlns="http://www.w3.org/2000/svg">
<path fill-rule="evenodd" clip-rule="evenodd" d="M8.3821 0.526611C7.96789 0.526611 7.6321 0.862398 7.6321 1.27661C7.6321 1.69082 7.96789 2.02661 8.3821 2.02661H10.3357L5.96963 6.39271C5.67674 6.68561 5.67674 7.16048 5.96963 7.45337C6.26252 7.74627 6.7374 7.74627 7.03029 7.45337L11.3964 3.08727V5.0409C11.3964 5.45511 11.7322 5.7909 12.1464 5.7909C12.5606 5.7909 12.8964 5.45511 12.8964 5.0409V1.27661C12.8964 0.862398 12.5606 0.526611 12.1464 0.526611H8.3821ZM5.24519 2.40871L5.22051 2.40871C4.59334 2.40871 4.08741 2.4087 3.675 2.43483C3.25111 2.46168 2.8755 2.51825 2.51727 2.65486C1.51893 3.0356 0.730401 3.82412 0.349667 4.82247C0.213052 5.1807 0.156482 5.55631 0.129631 5.9802C0.103508 6.3926 0.103512 6.89853 0.103516 7.52569V7.5257V7.55038V7.86407V7.89444V7.89445C0.103509 8.66415 0.103504 9.28499 0.142514 9.78859C0.182661 10.3069 0.267422 10.7631 0.471091 11.1886C0.840496 11.9603 1.46267 12.5825 2.23435 12.9519C2.65981 13.1555 3.11608 13.2403 3.63436 13.2804C4.13794 13.3194 4.75875 13.3194 5.52841 13.3194H5.52848H5.55888H5.87257H5.89725H5.8973C6.52445 13.3194 7.03036 13.3194 7.44275 13.2933C7.86664 13.2665 8.24225 13.2099 8.60048 13.0733C9.59883 12.6926 10.3874 11.904 10.7681 10.9057C10.9047 10.5474 10.9613 10.1718 10.9881 9.74795C11.0142 9.33554 11.0142 8.82962 11.0142 8.20245V8.17776C11.0142 7.76355 10.6785 7.42776 10.2642 7.42776C9.85002 7.42776 9.51424 7.76355 9.51424 8.17776C9.51424 8.83537 9.51389 9.29374 9.49112 9.65312C9.46874 10.0064 9.42685 10.213 9.36655 10.3712C9.13811 10.9702 8.66499 11.4433 8.06598 11.6717C7.90785 11.732 7.70123 11.7739 7.34793 11.7963C6.98854 11.8191 6.53017 11.8194 5.87257 11.8194H5.55888C4.7517 11.8194 4.18905 11.8189 3.75021 11.7849C3.31945 11.7516 3.07084 11.6893 2.88202 11.5989C2.41901 11.3772 2.0457 11.0039 1.82406 10.5409C1.73367 10.3521 1.6714 10.1035 1.63803 9.67274C1.60404 9.2339 1.60352 8.67125 1.60352 7.86407V7.55038C1.60352 6.89277 1.60387 6.43441 1.62663 6.07502C1.64901 5.72172 1.6909 5.5151 1.75121 5.35697C1.97965 4.75796 2.45276 4.28484 3.05177 4.0564C3.2099 3.9961 3.41652 3.95421 3.76983 3.93183C4.12921 3.90906 4.58758 3.90871 5.24519 3.90871C5.6594 3.90871 5.99519 3.57293 5.99519 3.15871C5.99519 2.7445 5.6594 2.40871 5.24519 2.40871Z" fill="#DCC394"/>
</svg>
