<svg width="34" height="34" viewBox="0 0 34 34" fill="none" xmlns="http://www.w3.org/2000/svg">
<path fill-rule="evenodd" clip-rule="evenodd" d="M16.5994 0.0646414C16.7934 -0.0215471 17.0147 -0.0215471 17.2086 0.0646414L33.3625 7.24413C33.6333 7.3645 33.8079 7.6331 33.8079 7.92949C33.8079 8.22588 33.6333 8.49447 33.3625 8.61485L17.2086 15.7943C17.0147 15.8805 16.7934 15.8805 16.5994 15.7943L0.445583 8.61485C0.174737 8.49447 0.000187176 8.22588 0.000187176 7.92949C0.000187176 7.6331 0.174737 7.3645 0.445583 7.24413L16.5994 0.0646414ZM2.59685 7.92949L16.904 14.2882L31.2112 7.92949L16.904 1.57074L2.59685 7.92949ZM0.0648285 16.5992C0.233057 16.2207 0.676278 16.0503 1.05479 16.2185L16.904 23.2626L32.7533 16.2185C33.1318 16.0503 33.575 16.2207 33.7432 16.5992C33.9115 16.9778 33.741 17.421 33.3625 17.5892L17.2086 24.7687C17.0147 24.8549 16.7934 24.8549 16.5994 24.7687L0.445583 17.5892C0.0670702 17.421 -0.1034 16.9778 0.0648285 16.5992ZM1.05479 25.1928C0.676278 25.0246 0.233057 25.1951 0.0648285 25.5736C-0.1034 25.9521 0.0670702 26.3953 0.445583 26.5636L16.5994 33.7431C16.7934 33.8292 17.0147 33.8292 17.2086 33.7431L33.3625 26.5636C33.741 26.3953 33.9115 25.9521 33.7432 25.5736C33.575 25.1951 33.1318 25.0246 32.7533 25.1928L16.904 32.237L1.05479 25.1928Z" fill="url(#paint0_linear_111_1417)"/>
<defs>
<linearGradient id="paint0_linear_111_1417" x1="-7" y1="0.403809" x2="40" y2="40.4038" gradientUnits="userSpaceOnUse">
<stop stop-color="#C7B299"/>
<stop offset="1" stop-color="#998675"/>
</linearGradient>
</defs>
</svg>
